# xmcd
#
# Track frame offsets:
# 150
# 17703
# 36915
# 57753
# 69464
# 87303
# 100679
# 119186
# 133659
# 153886
# 168204
# 189282
# 204396
# 222529
# 236391
#
# Disc length: 3381 seconds
#
#
# Revision: 0
# Processed by: cddbd v1.5.2PL0 Copyright (c) Steve Scherf et al.
# Submitted via: FreeRIP 2.951 
#
DISCID=ca0d330f
DTITLE=Michael Bublé - Michael Bublé
DYEAR=2003
DGENRE=swing
TTITLE0=Fever
TTITLE1=Moondance
TTITLE2=Kissing a fool
TTITLE3=For once in my life
TTITLE4=How can you mend a broken heart
TTITLE5=Summer wind
TTITLE6=You'll never find another love like me
TTITLE7=Crazy little thing called love
TTITLE8=Put your head on my shoulder
TTITLE9=Sway
TTITLE10=The way you look tonight
TTITLE11=Come fly with me
TTITLE12=That's all
TTITLE13=Nice 'n' easy (bonus)
TTITLE14=Can't help falling in love (bonus)
EXTD=
EXTT0=
EXTT1=
EXTT2=
EXTT3=
EXTT4=
EXTT5=
EXTT6=
EXTT7=
EXTT8=
EXTT9=
EXTT10=
EXTT11=
EXTT12=
EXTT13=
EXTT14=
PLAYORDER=
